<?xml version="1.0" encoding="iso-8859-1"?>
<!-- Generator: Adobe Illustrator 19.0.1, SVG Export Plug-In . SVG Version: 6.00 Build 0)  -->
<svg version="1.1" xmlns="http://www.w3.org/2000/svg" xmlns:xlink="http://www.w3.org/1999/xlink" x="0px" y="0px"
	 viewBox="0 0 128 128" style="enable-background:new 0 0 128 128;" xml:space="preserve">
<g id="_x31_">
	<ellipse style="fill:#D8D8D8;" cx="64" cy="114.416" rx="51.312" ry="11.28"/>
	<path style="fill:#232323;" d="M22.16,109.494l-0.935-2.925c2.224-0.711,4.811-1.367,7.689-1.951l0.61,3.009
		C26.755,108.189,24.277,108.817,22.16,109.494z M105.826,109.489c-2.118-0.676-4.596-1.304-7.365-1.865l0.61-3.009
		c2.878,0.583,5.464,1.238,7.688,1.949L105.826,109.489z M37.087,106.36l-0.417-3.042c2.471-0.339,5.091-0.633,7.789-0.876
		l0.274,3.058C42.083,105.739,39.511,106.028,37.087,106.36z M90.899,106.357c-2.432-0.333-5.005-0.621-7.649-0.859l0.274-3.058
		c2.691,0.242,5.312,0.537,7.791,0.876L90.899,106.357z M52.425,104.962l-0.157-3.066c2.554-0.131,5.183-0.219,7.816-0.262
		l0.051,3.07C57.537,104.747,54.942,104.834,52.425,104.962z M75.56,104.961c-2.518-0.128-5.112-0.215-7.71-0.258l0.051-3.07
		c2.633,0.043,5.263,0.131,7.817,0.262L75.56,104.961z M64.008,0L10.385,114.414C10.385,125.16,45.463,128,64.008,128
		c18.529,0,53.607-2.84,53.607-13.586L64.008,0z M64.008,123.395c-30.273,0-46.806-5.511-48.802-8.413L64.008,10.807l48.787,104.175
		C110.799,117.883,94.265,123.395,64.008,123.395z"/>
</g>
<g id="Layer_1">
</g>
</svg>
