<?xml version="1.0" encoding="iso-8859-1"?>
<!-- Generator: Adobe Illustrator 19.0.1, SVG Export Plug-In . SVG Version: 6.00 Build 0)  -->
<svg version="1.1" xmlns="http://www.w3.org/2000/svg" xmlns:xlink="http://www.w3.org/1999/xlink" x="0px" y="0px"
	 viewBox="0 0 128 128" style="enable-background:new 0 0 128 128;" xml:space="preserve">
<g id="_x31_0">
	<ellipse style="fill:#D8D8D8;" cx="64" cy="111.679" rx="53.09" ry="12.551"/>
	<path style="fill:#232323;" d="M102.071,3.735C91.881,1.322,78.355,0,64,0S36.119,1.322,25.929,3.735
		C14.432,6.455,8.607,10.19,8.607,14.847v98.306c0,4.657,5.825,8.392,17.322,11.112C36.119,126.678,49.645,128,64,128
		s27.881-1.322,38.071-3.735c11.497-2.72,17.322-6.455,17.322-11.112V14.847C119.393,10.19,113.568,6.455,102.071,3.735z
		 M114.782,107.404c-0.246-0.169-0.492-0.338-0.753-0.507l-1.645,2.598c1.061,0.676,1.86,1.353,2.398,1.983v1.675
		c0,3.474-17.921,10.236-50.782,10.236s-50.782-6.763-50.782-10.236v-1.675c0.676-0.799,1.798-1.66,3.289-2.505l-1.522-2.69
		c-0.646,0.369-1.23,0.738-1.767,1.122V21.303c2.89,1.783,7.132,3.366,12.711,4.672C36.119,28.373,49.645,29.71,64,29.71
		s27.881-1.337,38.071-3.735c5.579-1.306,9.821-2.89,12.711-4.672V107.404z M64,25.099c-32.861,0-50.782-6.778-50.782-10.252
		S31.139,4.611,64,4.611s50.782,6.763,50.782,10.236S96.861,25.099,64,25.099z M99.228,101.318l-0.722,2.982
		c2.644,0.646,5.072,1.353,7.224,2.121l1.03-2.89C104.499,102.732,101.979,101.979,99.228,101.318z M29.864,101.057
		c-2.72,0.63-5.256,1.337-7.547,2.09l0.984,2.92c2.182-0.738,4.626-1.414,7.255-2.013L29.864,101.057z M83.904,98.644l-0.354,3.059
		c2.582,0.292,5.118,0.661,7.531,1.076l0.523-3.028C89.13,99.32,86.548,98.951,83.904,98.644z M45.203,98.521
		c-2.628,0.292-5.21,0.63-7.7,1.045l0.507,3.028c2.428-0.4,4.964-0.738,7.531-1.014L45.203,98.521z M68.442,97.568l-0.077,3.074
		c2.551,0.077,5.118,0.184,7.608,0.353l0.215-3.059C73.637,97.752,71.039,97.645,68.442,97.568z M60.68,97.552
		c-2.598,0.046-5.195,0.154-7.746,0.307l0.2,3.074c2.49-0.154,5.057-0.261,7.608-0.307L60.68,97.552z"/>
</g>
<g id="Layer_1">
</g>
</svg>
