<?xml version="1.0" encoding="iso-8859-1"?>
<!-- Generator: Adobe Illustrator 19.0.1, SVG Export Plug-In . SVG Version: 6.00 Build 0)  -->
<svg version="1.1" xmlns="http://www.w3.org/2000/svg" xmlns:xlink="http://www.w3.org/1999/xlink" x="0px" y="0px"
	 viewBox="0 0 128 128" style="enable-background:new 0 0 128 128;" xml:space="preserve">
<g id="_x31_1">
	<polygon style="fill:#D8D8D8;" points="117.713,53.835 65.633,124.914 84.922,67.048 65.633,1.466 	"/>
	<path style="fill:#232323;" d="M65.607,0L7.741,59.898L65.736,128l54.523-73.053L65.607,0z M114.279,54.42l-28.11,11.329
		L69.632,9.49L114.279,54.42z M65.466,9.014l16.884,57.39H45.213L65.466,9.014z M60.875,10.454l-19.61,55.564l-27.249-7.085
		L60.875,10.454z M15.765,63.383l25.307,6.571l18.209,44.531L15.765,63.383z M65.466,119.423L45.329,70.198l36.906,0.064
		L65.466,119.423z M71.407,113.958L86.452,69.8l25.603-10.313L71.407,113.958z"/>
</g>
<g id="Layer_1">
</g>
</svg>
