<?xml version="1.0" encoding="iso-8859-1"?>
<!-- Generator: Adobe Illustrator 19.0.1, SVG Export Plug-In . SVG Version: 6.00 Build 0)  -->
<svg version="1.1" xmlns="http://www.w3.org/2000/svg" xmlns:xlink="http://www.w3.org/1999/xlink" x="0px" y="0px"
	 viewBox="0 0 128 128" style="enable-background:new 0 0 128 128;" xml:space="preserve">
<g id="_x31_4">
	<path style="fill:#232323;" d="M112.987,109.592l-1.338,2.415l6.044,3.326l1.338-2.415L112.987,109.592z M21.03,106.266
		l-6.044,3.339l1.338,2.415l6.044-3.339L21.03,106.266z M100.899,102.927l-1.325,2.415l6.03,3.326l1.338-2.415L100.899,102.927z
		 M33.118,99.602l-6.044,3.339l1.338,2.415l6.044-3.339L33.118,99.602z M88.825,96.248l-1.339,2.429l6.044,3.326l1.325-2.415
		L88.825,96.248z M45.192,92.937l-6.03,3.326l1.325,2.429l6.044-3.339L45.192,92.937z M76.737,89.583l-1.339,2.429l6.044,3.326
		l1.339-2.415L76.737,89.583z M57.28,86.272l-6.044,3.326l1.339,2.429l6.044-3.339L57.28,86.272z M70.693,86.258l-1.325,2.415
		l-6.137-3.395l-0.611,0.331v-4.015h2.76v1.725L70.693,86.258z M64,8.459L0,119.541h128L64,8.459z M10.184,115.401l0.097-0.055
		l-1.325-2.415l-0.538,0.304L62.62,19.153v0.345h2.76v-0.345l55.458,96.248H10.184z M62.62,67.795v6.9h2.76v-6.9H62.62z
		 M62.62,53.996v6.9h2.76v-6.9H62.62z M62.62,40.197v6.9h2.76v-6.9H62.62z M62.62,26.398v6.9h2.76v-6.9H62.62z"/>
</g>
<g id="Layer_1">
</g>
</svg>
