<?xml version="1.0" encoding="iso-8859-1"?>
<!-- Generator: Adobe Illustrator 19.0.1, SVG Export Plug-In . SVG Version: 6.00 Build 0)  -->
<svg version="1.1" xmlns="http://www.w3.org/2000/svg" xmlns:xlink="http://www.w3.org/1999/xlink" x="0px" y="0px"
	 viewBox="0 0 128 128" style="enable-background:new 0 0 128 128;" xml:space="preserve">
<g id="_x31_5">
	<path style="fill:#232323;" d="M127.984,63.163v-0.788C127.114,27.832,98.74,0,64,0C29.243,0,0.886,27.832,0.016,62.375v0.788
		C0,63.442,0,63.721,0,64c0,35.282,28.702,64,64,64c35.282,0,64-28.718,64-64C128,63.721,128,63.442,127.984,63.163z M4.94,62.851
		c0.033-2.429,0.23-4.808,0.574-7.155c1.034-2.019,2.609-4.021,4.71-5.924l-2.215-2.429c-0.328,0.295-0.624,0.591-0.935,0.886
		C13.982,23.286,36.874,4.923,64,4.923c29.194,0,53.514,21.3,58.24,49.181l0.246,1.641c0.345,2.33,0.541,4.693,0.574,7.106v0.164
		C122.224,76.324,95.524,87.45,64,87.45c-31.541,0-58.224-11.126-59.06-24.435V62.851z M64,123.077
		c-28.734,0-52.71-20.595-57.994-47.803C16.115,85.465,38.023,92.373,64,92.373c25.961,0,47.869-6.909,57.994-17.099
		C116.71,102.482,92.718,123.077,64,123.077z M111.623,41.518l-1.575,2.872c2.478,1.362,4.693,2.839,6.564,4.382l2.084-2.527
		C116.66,44.57,114.297,42.978,111.623,41.518z M22.449,38.581c-2.724,1.149-5.268,2.412-7.532,3.758l1.674,2.823
		c2.133-1.264,4.546-2.462,7.139-3.561L22.449,38.581z M96.082,35.282l-0.903,3.151c2.675,0.755,5.235,1.625,7.631,2.576
		l1.198-3.052C101.53,36.972,98.855,36.07,96.082,35.282z M38.4,33.641c-2.773,0.607-5.497,1.313-8.074,2.1l0.952,3.134
		c2.494-0.755,5.12-1.444,7.811-2.019L38.4,33.641z M79.77,31.984l-0.41,3.249c2.691,0.345,5.383,0.771,7.975,1.296l0.64-3.216
		C85.3,32.771,82.544,32.328,79.77,31.984z M54.876,31.327c-2.773,0.197-5.563,0.492-8.271,0.87l0.443,3.249
		c2.658-0.361,5.366-0.656,8.057-0.853L54.876,31.327z M64,30.999l-0.821,0.016l0.016,3.282l0.788-0.016
		c2.462,0.016,4.923,0.082,7.319,0.213l0.18-3.266C69.038,31.081,66.511,31.015,64,30.999z"/>
</g>
<g id="Layer_1">
</g>
</svg>
