<?xml version="1.0" encoding="iso-8859-1"?>
<!-- Generator: Adobe Illustrator 19.0.1, SVG Export Plug-In . SVG Version: 6.00 Build 0)  -->
<svg version="1.1" xmlns="http://www.w3.org/2000/svg" xmlns:xlink="http://www.w3.org/1999/xlink" x="0px" y="0px"
	 viewBox="0 0 128 128" style="enable-background:new 0 0 128 128;" xml:space="preserve">
<g id="_x31_7">
	<path style="fill:#232323;" d="M0,2.955v122.091h128V2.955H0z M5.89,8.844h15.097L5.89,23.941V8.844z M5.89,32.265L29.31,8.844
		h19.436L5.89,51.701V32.265z M5.89,60.044l51.2-51.2h19.416L5.89,79.46V60.044z M5.89,87.784l78.959-78.94h19.436L5.89,107.239
		V87.784z M122.11,119.156h-12.427l12.427-12.427V119.156z M122.11,98.405l-20.751,20.751H81.924l40.187-40.187V98.405z
		 M122.11,70.626l-48.51,48.53H54.164L122.11,51.21V70.626z M122.11,42.886l-76.29,76.27H28.093l94.017-94.017V42.886z
		 M122.11,16.815L19.769,119.156H5.89v-3.593L112.609,8.844h9.502V16.815z"/>
</g>
<g id="Layer_1">
</g>
</svg>
