<?xml version="1.0" encoding="iso-8859-1"?>
<!-- Generator: Adobe Illustrator 19.0.1, SVG Export Plug-In . SVG Version: 6.00 Build 0)  -->
<svg version="1.1" xmlns="http://www.w3.org/2000/svg" xmlns:xlink="http://www.w3.org/1999/xlink" x="0px" y="0px"
	 viewBox="0 0 128 128" style="enable-background:new 0 0 128 128;" xml:space="preserve">
<g id="_x31_8">
	<polygon style="fill:#D8D8D8;" points="81.653,37.998 99.951,65.044 80.473,97.483 47.694,94.551 30.033,66.887 47.694,36.292 	"/>
	<path style="fill:#232323;" d="M64,0L8.116,31.898v64.204l55.493,31.685L64,128l0.337-0.195l55.138-31.472l0.408-0.231V31.898L64,0
		z M48.122,38.072h33.991l15.772,26.966L81.226,92.785H47.235L31.463,65.818L48.122,38.072z M29.423,62.323L15.231,38.072h28.74
		L29.423,62.323z M86.212,38.072h27.871L99.978,61.578L86.212,38.072z M113.745,34.524H84.136L69.305,9.172L113.745,34.524z
		 M65.331,9.403l14.707,25.121H50.251L65.331,9.403z M62.687,6.883L46.1,34.524H14.255L62.687,6.883z M13.439,42.046L27.33,65.783
		L13.439,88.935V42.046z M29.388,69.278l13.749,23.507H15.266L29.388,69.278z M19.275,96.333h25.937l13.004,22.229L19.275,96.333z
		 M64.018,121.454L49.311,96.333h29.787L64.018,121.454z M69.961,118.455l13.27-22.123h25.494L69.961,118.455z M85.36,92.785
		l14.565-24.252l14.193,24.252H85.36z M114.561,86.504l-12.543-21.449l12.543-20.899V86.504z"/>
</g>
<g id="Layer_1">
</g>
</svg>
