<?xml version="1.0" encoding="iso-8859-1"?>
<!-- Generator: Adobe Illustrator 19.0.1, SVG Export Plug-In . SVG Version: 6.00 Build 0)  -->
<svg version="1.1" xmlns="http://www.w3.org/2000/svg" xmlns:xlink="http://www.w3.org/1999/xlink" x="0px" y="0px"
	 viewBox="0 0 128 128" style="enable-background:new 0 0 128 128;" xml:space="preserve">
<g id="_x31_9">
	<polygon style="fill:#D8D8D8;" points="41.707,125.733 19.416,102.912 41.707,80.09 86.289,80.09 108.58,102.912 86.289,125.733 	
		"/>
	<path style="fill:#232323;" d="M36.318,83.236l-5.763,5.911l2.361,2.312l5.779-5.911L36.318,83.236z M60.458,78.431v3.302h8.256
		v-3.302H60.458z M92.508,84.078L90.13,86.39l5.779,5.911l2.361-2.312L92.508,84.078z M92.508,84.078L90.13,86.39l5.779,5.911
		l2.361-2.312L92.508,84.078z M60.458,78.431v3.302h8.256v-3.302H60.458z M36.318,83.236l-5.763,5.911l2.361,2.312l5.779-5.911
		L36.318,83.236z M87.34,0H40.66L16.933,24.322v79.389L40.66,128H87.34l23.711-24.289l0.017-79.389L87.34,0z M39.224,119.43
		l-16.826-17.205l4.755-4.871l-2.361-2.312l-2.906,2.972V31.389l17.337,17.75V119.43z M83.806,78.431H76.97v3.302h6.836v41.313
		H44.177V81.734h8.025v-3.302h-8.025V50.609h39.628V78.431z M85.243,45.655H42.758l-19.88-20.343l19.88-20.359h42.485l19.88,20.359
		L85.243,45.655z M106.097,98.015l-2.064-2.114l-2.361,2.312l3.913,3.996L88.76,119.447V49.156l17.337-17.75V98.015z M98.27,89.99
		l-5.763-5.911L90.13,86.39l5.779,5.911L98.27,89.99z M68.714,78.431h-8.256v3.302h8.256V78.431z M38.696,85.548l-2.378-2.312
		l-5.763,5.911l2.361,2.312L38.696,85.548z M36.318,83.236l-5.763,5.911l2.361,2.312l5.779-5.911L36.318,83.236z M60.458,78.431
		v3.302h8.256v-3.302H60.458z M92.508,84.078L90.13,86.39l5.779,5.911l2.361-2.312L92.508,84.078z M92.508,84.078L90.13,86.39
		l5.779,5.911l2.361-2.312L92.508,84.078z M36.318,83.236l-5.763,5.911l2.361,2.312l5.779-5.911L36.318,83.236z M60.458,78.431
		v3.302h8.256v-3.302H60.458z"/>
</g>
<g id="Layer_1">
</g>
</svg>
