<?xml version="1.0" encoding="iso-8859-1"?>
<!-- Generator: Adobe Illustrator 19.0.1, SVG Export Plug-In . SVG Version: 6.00 Build 0)  -->
<svg version="1.1" xmlns="http://www.w3.org/2000/svg" xmlns:xlink="http://www.w3.org/1999/xlink" x="0px" y="0px"
	 viewBox="0 0 128 128" style="enable-background:new 0 0 128 128;" xml:space="preserve">
<g id="_x32_">
	<path style="fill:#D8D8D8;" d="M48.34,64L64,124.885L32.269,64L64,3.115L48.34,64z M64,3.115L81.274,64L64,124.885L97.345,64
		L64,3.115z"/>
	<path style="fill:#232323;" d="M64,0L4.46,64L64,128l59.54-64L64,0z M115.752,61.876H97.798L72.071,14.91L115.752,61.876z
		 M94.57,61.876H82.138l-13.352-47.08L94.57,61.876z M64.071,8.538l15.122,53.338H50.35L64.071,8.538z M50.35,66.124h28.842
		l-15.122,53.338L50.35,66.124z M47.419,61.876H34.974l24.595-47.179L47.419,61.876z M56.68,14.103L31.773,61.876H12.248
		L56.68,14.103z M12.248,66.124h19.526l24.906,47.773L12.248,66.124z M34.974,66.124h12.46l12.12,47.179L34.974,66.124z
		 M82.138,66.124H94.57l-25.784,47.08L82.138,66.124z M72.071,113.09l25.727-46.966h17.954L72.071,113.09z"/>
</g>
<g id="Layer_1">
</g>
</svg>
