<?xml version="1.0" encoding="iso-8859-1"?>
<!-- Generator: Adobe Illustrator 19.0.1, SVG Export Plug-In . SVG Version: 6.00 Build 0)  -->
<svg version="1.1" xmlns="http://www.w3.org/2000/svg" xmlns:xlink="http://www.w3.org/1999/xlink" x="0px" y="0px"
	 viewBox="0 0 128 128" style="enable-background:new 0 0 128 128;" xml:space="preserve">
<g id="_x32_0">
	<path style="fill:#232323;" d="M64,128L45.352,95.009H10.299l17.527-31.009L10.299,32.991h35.053L64,0l18.648,32.991h35.053
		l-17.527,31.008l17.527,31.009H82.648L64,128z M51.123,95.009L64,117.79l12.877-22.781H51.123z M85.486,89.985h23.604
		L97.289,69.104L85.486,89.985z M48.284,89.985h31.431l14.687-25.986L79.716,38.015H48.284L33.597,63.999L48.284,89.985z
		 M18.91,89.985h23.604L30.711,69.104L18.91,89.985z M85.486,38.015l11.803,20.881l11.801-20.881H85.486z M18.91,38.015
		l11.801,20.881l11.803-20.881H18.91z M51.123,32.991h25.754L64,10.21L51.123,32.991z"/>
</g>
<g id="Layer_1">
</g>
</svg>
