<?xml version="1.0" encoding="iso-8859-1"?>
<!-- Generator: Adobe Illustrator 19.0.1, SVG Export Plug-In . SVG Version: 6.00 Build 0)  -->
<svg version="1.1" xmlns="http://www.w3.org/2000/svg" xmlns:xlink="http://www.w3.org/1999/xlink" x="0px" y="0px"
	 viewBox="0 0 128 128" style="enable-background:new 0 0 128 128;" xml:space="preserve">
<g id="_x35_">
	<path style="fill:#D8D8D8;" d="M112.741,98.914l-48.559,27.948V3.892L112.741,98.914z"/>
	<path style="fill:#232323;" d="M64.356,0L12.486,98.334L63.993,128l51.521-29.666L64.356,0z M62.079,122.033L18.858,97.16
		l3.228-1.747l-1.342-2.459l-1.02,0.559l42.355-81.076V122.033z M66.271,74.061l3.619,1.956l1.327-2.459l-4.947-2.669V12.604
		l43.696,84.094l-43.696,25.139V74.061z M101.974,90.131l-1.328,2.459l6.149,3.312l1.328-2.459L101.974,90.131z M33.027,86.288
		l-6.135,3.34l1.328,2.445l6.148-3.326L33.027,86.288z M89.677,83.507l-1.328,2.459l6.148,3.312l1.328-2.459L89.677,83.507z
		 M45.31,79.623l-6.135,3.34l1.328,2.459l6.149-3.34L45.31,79.623z M77.366,76.87l-1.328,2.459l6.162,3.326l1.314-2.473
		L77.366,76.87z M57.593,72.957l-6.134,3.34l1.327,2.459l6.149-3.34L57.593,72.957z"/>
</g>
<g id="Layer_1">
</g>
</svg>
