<?xml version="1.0" encoding="iso-8859-1"?>
<!-- Generator: Adobe Illustrator 19.0.1, SVG Export Plug-In . SVG Version: 6.00 Build 0)  -->
<svg version="1.1" id="Layer_1" xmlns="http://www.w3.org/2000/svg" xmlns:xlink="http://www.w3.org/1999/xlink" x="0px" y="0px"
	 viewBox="0 0 128 128" style="enable-background:new 0 0 128 128;" xml:space="preserve">
<g id="_x36_">
	<polygon style="fill:#D8D8D8;" points="127.479,94.182 88.923,77.363 38.468,77.363 -0.174,94.182 31.74,122.547 95.566,122.547 	
		"/>
	<path style="fill:#232323;" d="M113.535,87.655l-1.092,2.511l-6.252-2.73l1.092-2.511L113.535,87.655z M21.904,87.423l-6.265,2.717
		l-1.078-2.498l6.252-2.73L21.904,87.423z M101.032,82.196l-1.092,2.511l-6.265-2.73l1.092-2.511L101.032,82.196z M34.42,81.963
		l-6.265,2.73l-1.092-2.498l6.265-2.73L34.42,81.963z M74.292,76.79v2.73h-6.824v-2.73H74.292z M60.642,76.79v2.73h-6.824v-2.73
		H60.642z M98.601,14.11L82.755,4.323H45.299L29.411,14.11L0.173,94.944l32.336,28.733h62.994l32.323-28.733L98.601,14.11z
		 M46.459,8.418h35.134L93.1,15.516l-11.479,6.047H46.351l-11.439-6.047L46.459,8.418z M31.759,117.52L5.783,94.425l3.603-1.556
		l-1.092-2.511l-2.456,1.078L32.1,18.683l0.368,0.191l11.166,5.883L31.759,117.52z M35.622,119.582l5.119-40.062h6.252v-2.73h-5.897
		l6.538-51.132h32.705l6.607,51.132h-5.828v2.73h6.183l5.173,40.062H35.622z M84.337,24.757l11.521-6.061l0.041-0.027l26.303,72.767
		l-2.416-1.051l-1.092,2.511l3.549,1.543l-25.921,23.027L84.337,24.757z"/>
</g>
<g id="Layer_1_1_">
</g>
</svg>
