<?xml version="1.0" encoding="iso-8859-1"?>
<!-- Generator: Adobe Illustrator 19.0.1, SVG Export Plug-In . SVG Version: 6.00 Build 0)  -->
<svg version="1.1" xmlns="http://www.w3.org/2000/svg" xmlns:xlink="http://www.w3.org/1999/xlink" x="0px" y="0px"
	 viewBox="0 0 128 128" style="enable-background:new 0 0 128 128;" xml:space="preserve">
<g id="_x37_">
	<path style="fill:#232323;" d="M96.007,8.576H31.993L0,64l31.993,55.424h64.015L128,64L96.007,8.576z M121.663,61.805H94.822
		L81.313,38.418l13.421-23.255L121.663,61.805z M91.017,64L77.508,87.402H50.492L36.983,64l13.508-23.402h27.017L91.017,64z
		 M90.929,12.967L77.508,36.208H50.492L37.071,12.967H90.929z M33.266,15.162l13.421,23.255L33.178,61.805H6.337L33.266,15.162z
		 M6.337,66.195h26.841l13.508,23.387l-13.421,23.255L6.337,66.195z M37.071,115.033l13.421-23.241h27.017l13.421,23.241H37.071z
		 M94.734,112.838L81.313,89.582l13.508-23.387h26.841L94.734,112.838z"/>
</g>
<g id="Layer_1">
</g>
</svg>
