<?xml version="1.0" encoding="iso-8859-1"?>
<!-- Generator: Adobe Illustrator 19.0.1, SVG Export Plug-In . SVG Version: 6.00 Build 0)  -->
<svg version="1.1" xmlns="http://www.w3.org/2000/svg" xmlns:xlink="http://www.w3.org/1999/xlink" x="0px" y="0px"
	 viewBox="0 0 128 128" style="enable-background:new 0 0 128 128;" xml:space="preserve">
<g id="_x38_">
	<path style="fill:#232323;" d="M70.428,0L11.782,26.418L5.354,90.433L57.572,128l58.646-26.432l6.428-64L70.428,0z M115.997,38.215
		l-15.504,7.31L72.237,6.722L115.997,38.215z M95.14,45.672l-58.249-5.251l32.302-30.383L95.14,45.672z M67.35,6.222L31.801,39.259
		L18.078,28.433L67.35,6.222z M15.651,32.14l13.562,10.694L10.694,81.401L15.651,32.14z M31.875,47.482l23.667,53.792L12.959,86.917
		L31.875,47.482z M55.954,121.396L15.871,92.551l41.348,13.959L55.954,121.396z M35.493,44.731l60.264,5.428l-35.729,50.364
		L35.493,44.731z M60.337,121.91l1.28-14.959l42.863-4.928L60.337,121.91z M64.235,102.215l34.493-48.614l10.002,43.481
		L64.235,102.215z M112.541,93.963l-10.208-44.422l15.401-7.266L112.541,93.963z"/>
</g>
<g id="Layer_1">
</g>
</svg>
