<?xml version="1.0" encoding="iso-8859-1"?>
<!-- Generator: Adobe Illustrator 19.0.1, SVG Export Plug-In . SVG Version: 6.00 Build 0)  -->
<svg version="1.1" xmlns="http://www.w3.org/2000/svg" xmlns:xlink="http://www.w3.org/1999/xlink" x="0px" y="0px"
	 viewBox="0 0 128 128" style="enable-background:new 0 0 128 128;" xml:space="preserve">
<g id="_x39_">
	<polygon style="fill:#D8D8D8;" points="82.401,2.956 82.401,91.474 125.686,112.727 125.686,26.159 	"/>
	<path style="fill:#232323;" d="M105.685,100.997l-1.372,2.76l6.893,3.454l1.373-2.76L105.685,100.997z M23.21,97.434l-7.634,1.049
		l0.416,3.053l7.634-1.049L23.21,97.434z M91.898,94.103l-1.388,2.761l6.893,3.454l1.388-2.76L91.898,94.103z M38.493,95.352
		l-7.649,1.033l0.416,3.069l7.649-1.049L38.493,95.352z M69.043,91.188l-7.634,1.033l0.416,3.069l7.634-1.049L69.043,91.188z
		 M82.537,1.48L0,12.738v91.05l45.463,22.732L128,114.737V24.212L82.537,1.48z M43.535,120.382L7.988,102.616l0.355-0.046
		l-0.416-3.054l-3.3,0.447V19.015l38.909,19.462V120.382z M9.238,16.147l71.618-9.762v7.988h3.084V7.356l34.838,17.411l-34.838,4.75
		v-7.433h-3.084v7.85L46.25,34.653L9.238,16.147z M123.373,109.849l-3.902-1.943l-1.372,2.745l1.295,0.648l-71.233,10.163V97.157
		l6.03-0.833l-0.416-3.053l-5.614,0.756V39.063l75.212-10.255V109.849z M84.989,90.664l-1.373,2.745l-1.743-0.864l-4.765,0.648
		l-0.416-3.053l4.164-0.555v-5.814h3.084v6.369L84.989,90.664z M80.856,37.506v7.711h3.084v-7.711H80.856z M80.856,52.927v7.711
		h3.084v-7.711H80.856z M80.856,68.349v7.711h3.084v-7.711H80.856z"/>
</g>
<g id="Layer_1">
</g>
</svg>
