<svg class="img-fluid" id="outputsvg" xmlns="http://www.w3.org/2000/svg" width="1242" height="548" viewBox="0 0 12420 4000">
  <g id="l2m2H6kdhZZUV6euckP8kXf" fill="rgb(122,12,40)" style="transform: none;">
    <g style="transform: none;">
      <path id="pF6o30Sie" d="M6725 4690 c-38 -5 -105 -17 -147 -29 -406 -110 -678 -390 -783 -806 -81 -317 -69 -823 26 -1115 147 -453 559 -730 1086 -730 264 0 486 65 689 200 112 75 258 226 313 323 74 131 124 305 107 371 -7 30 -34 38 -196 61 -63 9 -163 23 -221 32 -99 16 -108 16 -132 0 -18 -11 -27 -29 -32 -59 -42 -253 -253 -417 -536 -418 -94 0 -213 29 -284 70 -68 39 -156 134 -189 204 -60 126 -86 294 -86 554 0 376 48 556 183 694 223 226 659 187 828 -74 21 -33 50 -98 64 -144 21 -69 30 -85 49 -90 13 -3 86 4 162 16 76 12 184 28 239 36 123 19 145 31 145 82 0 49 -33 167 -69 247 -117 257 -387 469 -696 545 -152 37 -349 48 -520 30z"></path>
      <path id="p15HSwMwcW" d="M9082 4660 c-221 -19 -417 -99 -493 -202 -45 -62 -85 -152 -105 -238 -16 -67 -18 -162 -23 -880 l-6 -805 -166 -5 c-120 -4 -171 -9 -183 -19 -14 -12 -16 -40 -16 -221 0 -187 2 -209 18 -223 15 -14 47 -17 183 -19 l164 -3 5 -321 c4 -252 8 -325 19 -337 12 -15 43 -17 267 -17 216 0 255 2 268 16 14 13 16 58 16 334 0 281 2 319 16 324 9 3 137 6 285 6 256 0 270 1 289 20 19 19 20 33 20 218 0 194 -1 199 -23 220 -22 21 -32 22 -302 24 l-280 3 -3 650 c-3 697 0 744 46 829 55 101 143 136 343 136 125 0 131 1 155 25 l25 25 -1 209 c-1 158 -5 214 -15 227 -10 15 -33 20 -102 26 -112 8 -282 7 -401 -2z"></path>
      <path id="pY9NiYGxC" d="M2893 4650 c-12 -5 -26 -17 -31 -27 -5 -10 -62 -198 -127 -418 -64 -220 -136 -465 -160 -545 -24 -80 -89 -302 -145 -495 -56 -192 -149 -509 -206 -704 -57 -195 -104 -364 -104 -377 0 -13 9 -28 19 -34 12 -6 120 -10 283 -10 212 1 267 3 282 15 18 14 48 130 383 1475 70 284 86 319 105 240 16 -64 199 -772 268 -1035 38 -143 89 -341 115 -440 53 -209 62 -232 86 -245 10 -6 121 -10 252 -10 282 0 267 -6 301 125 13 50 33 124 44 165 35 128 373 1403 383 1443 5 20 16 37 23 37 8 0 65 -196 170 -592 87 -326 167 -624 177 -663 11 -38 44 -162 74 -275 43 -162 59 -209 77 -224 22 -17 38 -18 278 -12 140 4 263 10 272 12 10 3 20 15 23 27 3 13 -35 160 -90 347 -53 179 -125 424 -161 545 -36 121 -135 456 -220 745 -249 843 -266 899 -280 918 -11 15 -38 17 -293 17 -239 0 -283 -2 -296 -15 -15 -16 -54 -146 -325 -1090 -78 -272 -148 -501 -156 -509 -14 -15 -23 9 -88 259 -20 74 -76 286 -125 470 -48 184 -119 450 -155 590 -56 210 -72 259 -92 278 -25 22 -29 22 -282 21 -141 0 -267 -4 -279 -9z"></path>
      <path id="plgDbCbxS" d="M2300 4059 c-47 -4 -177 -12 -290 -18 -113 -6 -254 -16 -315 -22 -60 -5 -180 -14 -265 -18 -194 -11 -248 -29 -331 -111 -31 -31 -64 -70 -73 -87 -17 -33 -119 -354 -114 -357 4 -3 258 11 423 24 77 6 248 17 380 25 488 31 550 36 561 48 11 12 164 494 164 515 0 13 -12 13 -140 1z"></path>
      <path id="p10ft4a13Q" d="M2080 3300 c-52 -4 -212 -15 -355 -24 -143 -9 -307 -21 -365 -26 -58 -5 -177 -12 -265 -16 -88 -3 -177 -9 -199 -13 l-38 -6 -53 -170 c-29 -94 -67 -212 -83 -263 -16 -50 -27 -94 -23 -96 3 -2 94 3 201 10 107 7 276 17 375 23 475 29 607 42 661 67 69 33 134 91 167 151 14 27 47 117 72 199 25 82 48 155 50 162 5 13 7 13 -145 2z"></path>
    </g>
  </g>
</svg>