<?xml version="1.0" encoding="utf-8"?>
<!-- Generator: Adobe Illustrator 16.0.0, SVG Export Plug-In . SVG Version: 6.00 Build 0)  -->
<!DOCTYPE svg PUBLIC "-//W3C//DTD SVG 1.0//EN" "http://www.w3.org/TR/2001/REC-SVG-20010904/DTD/svg10.dtd">
<svg version="1.0" id="Layer_1" xmlns="http://www.w3.org/2000/svg" xmlns:xlink="http://www.w3.org/1999/xlink" x="0px" y="0px"
	 width="100px" height="100px" viewBox="0 0 100 100" enable-background="new 0 0 100 100" xml:space="preserve">
<path fill="none" stroke="#000000" stroke-width="2" stroke-linecap="round" stroke-linejoin="round" stroke-miterlimit="10" d="
	M44.999,61.203c0-0.715,0.155-1.391,0.426-2.006l-21.026-9.199v23.798h0c2.762,0,5,2.24,5,5.002c0,0.713-0.154,1.391-0.424,2.004
	L50,90V66.203C47.238,66.203,44.999,63.965,44.999,61.203z"/>
<path fill="none" stroke="#000000" stroke-width="2" stroke-linecap="round" stroke-linejoin="round" stroke-miterlimit="10" d="
	M54.574,59.197c0.27,0.615,0.424,1.291,0.424,2.006c0,2.762-2.237,5-4.998,5V90l21.023-9.197c-0.27-0.613-0.424-1.291-0.424-2.004
	c0-2.762,2.238-5.002,5-5.002V49.999L54.574,59.197z"/>
<path fill="none" stroke="#000000" stroke-width="2" stroke-linecap="round" stroke-linejoin="round" stroke-miterlimit="10" d="
	M44.999,32.404c0-0.714,0.155-1.391,0.425-2.006l-16.447-7.196c-0.773,1.764-2.528,2.999-4.576,2.999h-0.001V50l21.025,9.199
	c0.772-1.762,2.528-2.996,4.576-2.996V37.404C47.238,37.404,44.999,35.165,44.999,32.404z"/>
<path fill="none" stroke="#000000" stroke-width="2" stroke-linecap="round" stroke-linejoin="round" stroke-miterlimit="10" d="
	M71.023,23.202l-16.449,7.196c0.27,0.615,0.424,1.292,0.424,2.006c0,2.761-2.237,4.998-4.998,5v18.799
	c2.047,0,3.802,1.234,4.574,2.996L75.6,50v-23.8C73.552,26.201,71.797,24.965,71.023,23.202z"/>
<path fill="none" stroke="#000000" stroke-width="2" stroke-linecap="round" stroke-linejoin="round" stroke-miterlimit="10" d="
	M70.6,21.2c0-0.713,0.152-1.388,0.424-2.001L50,10l-21.023,9.198c0.269,0.613,0.423,1.288,0.423,2.001
	c0,0.714-0.155,1.391-0.424,2.006L45.423,30.4c0.773-1.762,2.529-2.997,4.577-2.997c2.048,0,3.801,1.235,4.575,2.997l16.449-7.196
	C70.754,22.588,70.6,21.914,70.6,21.2z"/>
<circle fill="none" stroke="#000000" stroke-width="2" stroke-linecap="round" stroke-linejoin="round" stroke-miterlimit="10" cx="49.999" cy="32.404" r="5"/>
<circle fill="none" stroke="#000000" stroke-width="2" stroke-linecap="round" stroke-linejoin="round" stroke-miterlimit="10" cx="75.6" cy="21.2" r="5"/>
<circle fill="none" stroke="#000000" stroke-width="2" stroke-linecap="round" stroke-linejoin="round" stroke-miterlimit="10" cx="24.4" cy="21.2" r="5"/>
<circle fill="none" stroke="#000000" stroke-width="2" stroke-linecap="round" stroke-linejoin="round" stroke-miterlimit="10" cx="24.4" cy="78.799" r="5"/>
<circle fill="none" stroke="#000000" stroke-width="2" stroke-linecap="round" stroke-linejoin="round" stroke-miterlimit="10" cx="75.6" cy="78.799" r="5"/>
<circle fill="none" stroke="#000000" stroke-width="2" stroke-linecap="round" stroke-linejoin="round" stroke-miterlimit="10" cx="49.999" cy="61.203" r="5"/>
</svg>
