<?xml version="1.0" encoding="utf-8"?>
<!-- Generator: Adobe Illustrator 16.0.0, SVG Export Plug-In . SVG Version: 6.00 Build 0)  -->
<!DOCTYPE svg PUBLIC "-//W3C//DTD SVG 1.0//EN" "http://www.w3.org/TR/2001/REC-SVG-20010904/DTD/svg10.dtd">
<svg version="1.0" id="Layer_1" xmlns="http://www.w3.org/2000/svg" xmlns:xlink="http://www.w3.org/1999/xlink" x="0px" y="0px"
	 width="100px" height="100px" viewBox="0 0 100 100" enable-background="new 0 0 100 100" xml:space="preserve">
<circle fill="none" stroke="#000000" stroke-width="2" stroke-linecap="round" stroke-linejoin="round" stroke-miterlimit="10" cx="50" cy="14.998" r="5"/>
<circle fill="none" stroke="#000000" stroke-width="2" stroke-linecap="round" stroke-linejoin="round" stroke-miterlimit="10" cx="50" cy="85.001" r="5"/>
<circle fill="none" stroke="#000000" stroke-width="2" stroke-linecap="round" stroke-linejoin="round" stroke-miterlimit="10" cx="18.181" cy="18.177" r="5"/>
<circle fill="none" stroke="#000000" stroke-width="2" stroke-linecap="round" stroke-linejoin="round" stroke-miterlimit="10" cx="81.82" cy="81.819" r="5"/>
<circle fill="none" stroke="#000000" stroke-width="2" stroke-linecap="round" stroke-linejoin="round" stroke-miterlimit="10" cx="18.181" cy="81.819" r="5"/>
<circle fill="none" stroke="#000000" stroke-width="2" stroke-linecap="round" stroke-linejoin="round" stroke-miterlimit="10" cx="81.82" cy="18.177" r="5"/>
<circle fill="none" stroke="#000000" stroke-width="2" stroke-linecap="round" stroke-linejoin="round" stroke-miterlimit="10" cx="15.001" cy="49.999" r="5"/>
<circle fill="none" stroke="#000000" stroke-width="2" stroke-linecap="round" stroke-linejoin="round" stroke-miterlimit="10" cx="85.001" cy="49.999" r="5"/>
<path fill="none" stroke="#000000" stroke-width="2" stroke-linecap="round" stroke-linejoin="round" stroke-miterlimit="10" d="
	M60.155,33.827c-1.574-5.294-3.943-10.339-7.111-14.887C56.212,23.488,58.581,28.533,60.155,33.827z"/>
<path fill="none" stroke="#000000" stroke-width="2" stroke-linecap="round" stroke-linejoin="round" stroke-miterlimit="10" d="
	M64.756,57.703c8.53-9.762,14.486-21.745,16.481-34.581C79.242,35.958,73.286,47.941,64.756,57.703z"/>
<path fill="none" stroke="#000000" stroke-width="2" stroke-linecap="round" stroke-linejoin="round" stroke-miterlimit="10" d="
	M23.125,81.234c12.835-1.995,24.816-7.95,34.577-16.478C47.941,73.284,35.96,79.239,23.125,81.234z"/>
<path fill="none" stroke="#000000" stroke-width="2" stroke-linecap="round" stroke-linejoin="round" stroke-miterlimit="10" d="
	M39.846,66.173c1.574,5.294,3.942,10.34,7.11,14.888C43.788,76.513,41.42,71.467,39.846,66.173z"/>
<path fill="none" stroke="#000000" stroke-width="2" stroke-linecap="round" stroke-linejoin="round" stroke-miterlimit="10" d="
	M18.766,23.123c1.995,12.836,7.95,24.819,16.479,34.581C26.716,47.941,20.761,35.958,18.766,23.123z"/>
<path fill="none" stroke="#000000" stroke-width="2" stroke-linecap="round" stroke-linejoin="round" stroke-miterlimit="10" d="
	M42.297,64.757c9.762,8.527,21.742,14.484,34.579,16.479C64.039,79.241,52.059,73.284,42.297,64.757z"/>
<path fill="none" stroke="#000000" stroke-width="2" stroke-linecap="round" stroke-linejoin="round" stroke-miterlimit="10" d="
	M18.941,53.044c4.548,3.169,9.598,5.523,14.893,7.092C28.539,58.567,23.489,56.213,18.941,53.044z"/>
<path fill="none" stroke="#000000" stroke-width="2" stroke-linecap="round" stroke-linejoin="round" stroke-miterlimit="10" d="
	M43.598,62.099c4.25,0.471,8.555,0.474,12.804-0.001C52.152,62.572,47.848,62.569,43.598,62.099z"/>
<path fill="none" stroke="#000000" stroke-width="2" stroke-linecap="round" stroke-linejoin="round" stroke-miterlimit="10" d="
	M66.174,60.154c5.291-1.574,10.339-3.943,14.886-7.11C76.513,56.211,71.465,58.58,66.174,60.154z"/>
<path fill="none" stroke="#000000" stroke-width="2" stroke-linecap="round" stroke-linejoin="round" stroke-miterlimit="10" d="
	M53.043,81.059c3.169-4.548,5.523-9.597,7.092-14.893C58.566,71.462,56.212,76.511,53.043,81.059z"/>
<path fill="none" stroke="#000000" stroke-width="2" stroke-linecap="round" stroke-linejoin="round" stroke-miterlimit="10" d="
	M62.098,56.402c0.473-4.249,0.476-8.556,0-12.806C62.573,47.847,62.57,52.153,62.098,56.402z"/>
<path fill="none" stroke="#000000" stroke-width="2" stroke-linecap="round" stroke-linejoin="round" stroke-miterlimit="10" d="
	M23.124,18.764c12.837,1.996,24.818,7.952,34.578,16.479C47.942,26.715,35.961,20.759,23.124,18.764z"/>
<path fill="none" stroke="#000000" stroke-width="2" stroke-linecap="round" stroke-linejoin="round" stroke-miterlimit="10" d="
	M64.756,42.297c8.526,9.76,14.481,21.742,16.477,34.577C79.237,64.039,73.282,52.057,64.756,42.297z"/>
<path fill="none" stroke="#000000" stroke-width="2" stroke-linecap="round" stroke-linejoin="round" stroke-miterlimit="10" d="
	M81.059,46.956c-4.546-3.168-9.594-5.536-14.885-7.111C71.465,41.42,76.513,43.788,81.059,46.956z"/>
<path fill="none" stroke="#000000" stroke-width="2" stroke-linecap="round" stroke-linejoin="round" stroke-miterlimit="10" d="
	M76.876,18.766c-12.835,1.996-24.817,7.95-34.579,16.477C52.059,26.715,64.041,20.761,76.876,18.766z"/>
<path fill="none" stroke="#000000" stroke-width="2" stroke-linecap="round" stroke-linejoin="round" stroke-miterlimit="10" d="
	M18.768,76.874c1.994-12.837,7.949-24.817,16.477-34.577C26.717,52.057,20.762,64.037,18.768,76.874z"/>
<path fill="none" stroke="#000000" stroke-width="2" stroke-linecap="round" stroke-linejoin="round" stroke-miterlimit="10" d="
	M46.956,18.939c-3.169,4.548-5.524,9.598-7.091,14.892C41.432,28.538,43.787,23.488,46.956,18.939z"/>
<path fill="none" stroke="#000000" stroke-width="2" stroke-linecap="round" stroke-linejoin="round" stroke-miterlimit="10" d="
	M37.901,43.597c-0.471,4.248-0.476,8.557,0.001,12.806C37.426,52.153,37.431,47.845,37.901,43.597z"/>
<path fill="none" stroke="#000000" stroke-width="2" stroke-linecap="round" stroke-linejoin="round" stroke-miterlimit="10" d="
	M33.833,39.864c-5.294,1.566-10.343,3.922-14.891,7.092C23.49,43.786,28.539,41.43,33.833,39.864z"/>
<path fill="none" stroke="#000000" stroke-width="2" stroke-linecap="round" stroke-linejoin="round" stroke-miterlimit="10" d="
	M56.401,37.902c-4.249-0.478-8.555-0.472-12.804-0.003C47.847,37.43,52.152,37.424,56.401,37.902z"/>
<circle fill="none" stroke="#000000" stroke-width="2" stroke-linecap="round" stroke-linejoin="round" stroke-miterlimit="10" cx="38.675" cy="38.673" r="5"/>
<circle fill="none" stroke="#000000" stroke-width="2" stroke-linecap="round" stroke-linejoin="round" stroke-miterlimit="10" cx="38.675" cy="61.325" r="5"/>
<circle fill="none" stroke="#000000" stroke-width="2" stroke-linecap="round" stroke-linejoin="round" stroke-miterlimit="10" cx="61.325" cy="61.325" r="5"/>
<path fill="none" stroke="#000000" stroke-width="2" stroke-linecap="round" stroke-linejoin="round" stroke-miterlimit="10" d="
	M66.325,38.673c0,2.764-2.239,5-5.001,5c-2.763,0-5-2.235-5-5c0-2.763,2.237-4.999,5-4.999
	C64.086,33.674,66.325,35.911,66.325,38.673z"/>
</svg>
