<?xml version="1.0" encoding="utf-8"?>
<!-- Generator: Adobe Illustrator 16.0.0, SVG Export Plug-In . SVG Version: 6.00 Build 0)  -->
<!DOCTYPE svg PUBLIC "-//W3C//DTD SVG 1.0//EN" "http://www.w3.org/TR/2001/REC-SVG-20010904/DTD/svg10.dtd">
<svg version="1.0" id="Layer_1" xmlns="http://www.w3.org/2000/svg" xmlns:xlink="http://www.w3.org/1999/xlink" x="0px" y="0px"
	 width="100px" height="100px" viewBox="0 0 100 100" enable-background="new 0 0 100 100" xml:space="preserve">
<path fill="none" stroke="#000000" stroke-width="2" stroke-linecap="round" stroke-linejoin="round" stroke-miterlimit="10" d="
	M75.602,26.197c-2.762,0-5-2.237-5-5c0-0.712,0.152-1.387,0.422-2L50.003,10l-21.025,9.198c0.27,0.613,0.423,1.286,0.423,1.998
	c0,2.763-2.239,4.999-5.001,5V45c2.762,0.001,5.001,2.237,5.001,5c0,0.712-0.153,1.386-0.423,2.001l21.025,9.199l21.022-9.197
	c-0.27-0.615-0.424-1.291-0.424-2.003c0-2.763,2.238-5,5-5h0.002V26.197H75.602z"/>
<path fill="none" stroke="#000000" stroke-width="2" stroke-linecap="round" stroke-linejoin="round" stroke-miterlimit="10" d="
	M75.602,55c-2.762,0-5-2.238-5-5c0-0.713,0.154-1.389,0.424-2.001L50,38.801L28.978,48c0.27,0.612,0.423,1.288,0.423,2.001
	c0,2.761-2.239,5-5.001,5v18.803c2.762,0,5.001,2.238,5.001,5c0,0.713-0.153,1.387-0.423,2L50,90l21.025-9.195
	c-0.27-0.613-0.424-1.289-0.424-2.002c0-2.762,2.238-5,5-5h0.002V55H75.602z"/>
<circle fill="none" stroke="#000000" stroke-width="2" stroke-linecap="round" stroke-linejoin="round" stroke-miterlimit="10" cx="75.602" cy="21.197" r="5"/>
<circle fill="none" stroke="#000000" stroke-width="2" stroke-linecap="round" stroke-linejoin="round" stroke-miterlimit="10" cx="75.602" cy="50" r="5"/>
<circle fill="none" stroke="#000000" stroke-width="2" stroke-linecap="round" stroke-linejoin="round" stroke-miterlimit="10" cx="24.399" cy="50" r="5.001"/>
<circle fill="none" stroke="#000000" stroke-width="2" stroke-linecap="round" stroke-linejoin="round" stroke-miterlimit="10" cx="75.602" cy="78.803" r="5"/>
<circle fill="none" stroke="#000000" stroke-width="2" stroke-linecap="round" stroke-linejoin="round" stroke-miterlimit="10" cx="24.399" cy="21.197" r="5.001"/>
<circle fill="none" stroke="#000000" stroke-width="2" stroke-linecap="round" stroke-linejoin="round" stroke-miterlimit="10" cx="24.399" cy="78.803" r="5.001"/>
</svg>
