<?xml version="1.0" encoding="utf-8"?>
<!-- Generator: Adobe Illustrator 16.0.0, SVG Export Plug-In . SVG Version: 6.00 Build 0)  -->
<!DOCTYPE svg PUBLIC "-//W3C//DTD SVG 1.0//EN" "http://www.w3.org/TR/2001/REC-SVG-20010904/DTD/svg10.dtd">
<svg version="1.0" id="Layer_1" xmlns="http://www.w3.org/2000/svg" xmlns:xlink="http://www.w3.org/1999/xlink" x="0px" y="0px"
	 width="100px" height="100px" viewBox="0 0 100 100" enable-background="new 0 0 100 100" xml:space="preserve">
<path fill="none" stroke="#000000" stroke-width="2" stroke-linecap="round" stroke-linejoin="round" stroke-miterlimit="10" d="
	M35.505,71.237C26.546,72.823,19.003,75.868,15,80.003C15.007,85.525,30.675,90,50,90c19.327,0,34.993-4.475,35-9.997
	c-3.714-3.828-10.837-7.057-20.502-8.766C54.833,69.526,44.46,69.653,35.505,71.237z"/>
<path fill="none" stroke="#000000" stroke-width="2" stroke-linecap="round" stroke-linejoin="round" stroke-miterlimit="10" d="
	M50,10L15,79.999v0.004c4.003-4.135,11.546-7.18,20.505-8.766c8.955-1.584,19.328-1.711,28.993,0
	c9.665,1.709,16.79,4.938,20.502,8.766v-0.004L50,10z"/>
</svg>
