<?xml version="1.0" encoding="utf-8"?>
<!-- Generator: Adobe Illustrator 16.0.0, SVG Export Plug-In . SVG Version: 6.00 Build 0)  -->
<!DOCTYPE svg PUBLIC "-//W3C//DTD SVG 1.0//EN" "http://www.w3.org/TR/2001/REC-SVG-20010904/DTD/svg10.dtd">
<svg version="1.0" id="Layer_1" xmlns="http://www.w3.org/2000/svg" xmlns:xlink="http://www.w3.org/1999/xlink" x="0px" y="0px"
	 width="100px" height="100px" viewBox="0 0 100 100" enable-background="new 0 0 100 100" xml:space="preserve">
<path fill="none" stroke="#000000" stroke-width="2" stroke-linecap="round" stroke-linejoin="round" stroke-miterlimit="10" d="
	M44.365,62.266c2.884,0,5.22-2.34,5.22-5.219c0-3.604-2.922-6.529-6.525-6.529c-4.502,0-8.155,3.656-8.155,8.16
	c0,5.629,4.562,10.193,10.195,10.193c7.034,0,12.739-5.705,12.739-12.742c0-8.797-7.131-15.932-15.93-15.932
	C30.916,40.197,22,49.113,22,60.111C22,73.857,33.145,85,46.891,85C64.072,85,78,71.07,78,53.891C78,32.412,60.588,15,39.112,15
	C60.588,15,78,32.412,78,53.891C78,71.07,64.072,85,46.891,85C33.145,85,22,73.857,22,60.111c0-10.999,8.916-19.915,19.909-19.915
	c8.799,0,15.93,7.135,15.93,15.932c0,7.037-5.705,12.742-12.739,12.742c-5.633,0-10.195-4.564-10.195-10.193
	c0-4.504,3.652-8.16,8.155-8.16c3.604,0,6.525,2.926,6.525,6.529C49.585,59.926,47.249,62.266,44.365,62.266z"/>
</svg>
