<?xml version="1.0" encoding="utf-8"?>
<!-- Generator: Adobe Illustrator 16.0.0, SVG Export Plug-In . SVG Version: 6.00 Build 0)  -->
<!DOCTYPE svg PUBLIC "-//W3C//DTD SVG 1.0//EN" "http://www.w3.org/TR/2001/REC-SVG-20010904/DTD/svg10.dtd">
<svg version="1.0" id="Layer_1" xmlns="http://www.w3.org/2000/svg" xmlns:xlink="http://www.w3.org/1999/xlink" x="0px" y="0px"
	 width="100px" height="100px" viewBox="0 0 100 100" enable-background="new 0 0 100 100" xml:space="preserve">
<circle fill="none" stroke="#000000" stroke-width="2" stroke-linecap="round" stroke-linejoin="round" stroke-miterlimit="10" cx="18" cy="18" r="8"/>
<circle fill="none" stroke="#000000" stroke-width="2" stroke-linecap="round" stroke-linejoin="round" stroke-miterlimit="10" cx="34" cy="18" r="3"/>
<circle fill="none" stroke="#000000" stroke-width="2" stroke-linecap="round" stroke-linejoin="round" stroke-miterlimit="10" cx="50" cy="18" r="5.5"/>
<circle fill="none" stroke="#000000" stroke-width="2" stroke-linecap="round" stroke-linejoin="round" stroke-miterlimit="10" cx="66.001" cy="18" r="3"/>
<path fill="none" stroke="#000000" stroke-width="2" stroke-linecap="round" stroke-linejoin="round" stroke-miterlimit="10" d="
	M90,18c0,4.42-3.579,8.003-8,8.003c-4.417,0-7.999-3.583-7.999-8.003C74.001,13.583,77.583,10,82,10C86.421,10,90,13.583,90,18z"/>
<path fill="none" stroke="#000000" stroke-width="2" stroke-linecap="round" stroke-linejoin="round" stroke-miterlimit="10" d="
	M39.5,34.002c0,3.035-2.463,5.498-5.501,5.498c-3.036,0-5.499-2.463-5.499-5.498c0-3.04,2.463-5.502,5.499-5.502
	C37.038,28.5,39.5,30.962,39.5,34.002z"/>
<circle fill="none" stroke="#000000" stroke-width="2" stroke-linecap="round" stroke-linejoin="round" stroke-miterlimit="10" cx="50" cy="34" r="2.999"/>
<path fill="none" stroke="#000000" stroke-width="2" stroke-linecap="round" stroke-linejoin="round" stroke-miterlimit="10" d="
	M71.499,34.002c0,3.035-2.459,5.498-5.498,5.498c-3.038,0-5.503-2.463-5.503-5.498c0-3.04,2.465-5.502,5.503-5.502
	C69.04,28.5,71.499,30.962,71.499,34.002z"/>
<circle fill="none" stroke="#000000" stroke-width="2" stroke-linecap="round" stroke-linejoin="round" stroke-miterlimit="10" cx="34" cy="50.001" r="3"/>
<circle fill="none" stroke="#000000" stroke-width="2" stroke-linecap="round" stroke-linejoin="round" stroke-miterlimit="10" cx="50" cy="50.001" r="8.001"/>
<circle fill="none" stroke="#000000" stroke-width="2" stroke-linecap="round" stroke-linejoin="round" stroke-miterlimit="10" cx="66.001" cy="50.001" r="3"/>
<path fill="none" stroke="#000000" stroke-width="2" stroke-linecap="round" stroke-linejoin="round" stroke-miterlimit="10" d="
	M39.5,66.002c0,3.035-2.463,5.498-5.501,5.498c-3.036,0-5.499-2.463-5.499-5.498c0-3.041,2.463-5.502,5.499-5.502
	C37.038,60.5,39.5,62.961,39.5,66.002z"/>
<circle fill="none" stroke="#000000" stroke-width="2" stroke-linecap="round" stroke-linejoin="round" stroke-miterlimit="10" cx="49.999" cy="66" r="3"/>
<path fill="none" stroke="#000000" stroke-width="2" stroke-linecap="round" stroke-linejoin="round" stroke-miterlimit="10" d="
	M71.499,66.002c0,3.035-2.459,5.498-5.498,5.498c-3.038,0-5.503-2.463-5.503-5.498c0-3.041,2.465-5.502,5.503-5.502
	C69.04,60.5,71.499,62.961,71.499,66.002z"/>
<path fill="none" stroke="#000000" stroke-width="2" stroke-linecap="round" stroke-linejoin="round" stroke-miterlimit="10" d="
	M26,82c0,4.416-3.583,7.998-8.001,7.998C13.579,89.998,10,86.416,10,82c0-4.422,3.579-7.998,7.999-7.998
	C22.418,74.002,26,77.578,26,82z"/>
<circle fill="none" stroke="#000000" stroke-width="2" stroke-linecap="round" stroke-linejoin="round" stroke-miterlimit="10" cx="34" cy="82" r="3"/>
<circle fill="none" stroke="#000000" stroke-width="2" stroke-linecap="round" stroke-linejoin="round" stroke-miterlimit="10" cx="50" cy="82" r="5.5"/>
<circle fill="none" stroke="#000000" stroke-width="2" stroke-linecap="round" stroke-linejoin="round" stroke-miterlimit="10" cx="66" cy="82" r="2.999"/>
<circle fill="none" stroke="#000000" stroke-width="2" stroke-linecap="round" stroke-linejoin="round" stroke-miterlimit="10" cx="17.999" cy="66" r="3"/>
<path fill="none" stroke="#000000" stroke-width="2" stroke-linecap="round" stroke-linejoin="round" stroke-miterlimit="10" d="
	M17.999,44.501c3.039,0,5.5,2.46,5.5,5.5c0,3.036-2.462,5.499-5.5,5.499c-3.037,0-5.498-2.463-5.498-5.499
	C12.501,46.961,14.962,44.501,17.999,44.501z"/>
<circle fill="none" stroke="#000000" stroke-width="2" stroke-linecap="round" stroke-linejoin="round" stroke-miterlimit="10" cx="17.999" cy="34.001" r="3"/>
<circle fill="none" stroke="#000000" stroke-width="2" stroke-linecap="round" stroke-linejoin="round" stroke-miterlimit="10" cx="82" cy="66" r="3"/>
<path fill="none" stroke="#000000" stroke-width="2" stroke-linecap="round" stroke-linejoin="round" stroke-miterlimit="10" d="
	M82,44.503c3.039,0,5.503,2.46,5.503,5.498c0,3.036-2.464,5.499-5.503,5.499c-3.035,0-5.498-2.463-5.498-5.499
	C76.502,46.963,78.965,44.503,82,44.503z"/>
<circle fill="none" stroke="#000000" stroke-width="2" stroke-linecap="round" stroke-linejoin="round" stroke-miterlimit="10" cx="82" cy="34.001" r="2.999"/>
<path fill="none" stroke="#000000" stroke-width="2" stroke-linecap="round" stroke-linejoin="round" stroke-miterlimit="10" d="
	M90,82c0,4.416-3.579,8-8,8c-4.417,0-7.999-3.584-7.999-8c0-4.422,3.582-8,7.999-8C86.421,74,90,77.578,90,82z"/>
</svg>
