<?xml version="1.0" encoding="utf-8"?>
<!-- Generator: Adobe Illustrator 16.0.0, SVG Export Plug-In . SVG Version: 6.00 Build 0)  -->
<!DOCTYPE svg PUBLIC "-//W3C//DTD SVG 1.0//EN" "http://www.w3.org/TR/2001/REC-SVG-20010904/DTD/svg10.dtd">
<svg version="1.0" id="Layer_1" xmlns="http://www.w3.org/2000/svg" xmlns:xlink="http://www.w3.org/1999/xlink" x="0px" y="0px"
	 width="100px" height="100px" viewBox="0 0 100 100" enable-background="new 0 0 100 100" xml:space="preserve">
<path fill="none" stroke="#000000" stroke-width="2" stroke-linecap="round" stroke-linejoin="round" stroke-miterlimit="10" d="
	M53.5,29.594c0.936-0.933,1.45-2.178,1.45-3.501c0-2.73-2.221-4.951-4.952-4.951c-2.729,0-4.948,2.221-4.951,4.948l0,0
	c0,1.322,0.516,2.568,1.452,3.503L63.402,46.5l-3.5,3.498L42.998,33.095c-1.793-1.795-2.901-4.271-2.901-7.005v0.003
	c0-5.469,4.434-9.902,9.902-9.902c5.47,0,9.904,4.434,9.904,9.902c0,2.736-1.108,5.21-2.9,7.003L53.5,29.594z"/>
<path fill="none" stroke="#000000" stroke-width="2" stroke-linecap="round" stroke-linejoin="round" stroke-miterlimit="10" d="
	M70.404,53.502c0.936,0.936,2.177,1.451,3.502,1.451c2.729,0,4.95-2.222,4.95-4.951c0-2.73-2.217-4.951-4.946-4.953v0.002
	c-1.324,0-2.566,0.516-3.504,1.449L53.5,63.404l-3.501-3.5L66.906,43c1.794-1.792,4.269-2.901,7.004-2.901l-0.004-0.002
	c5.469,0,9.902,4.436,9.902,9.905s-4.434,9.902-9.902,9.902c-2.737,0-5.211-1.109-7.002-2.9L70.404,53.502z"/>
<path fill="none" stroke="#000000" stroke-width="2" stroke-linecap="round" stroke-linejoin="round" stroke-miterlimit="10" d="
	M29.594,46.5c-0.938-0.937-2.179-1.451-3.502-1.451c-2.73,0-4.951,2.221-4.951,4.949c0,2.732,2.218,4.953,4.948,4.955v-0.002
	c1.323,0,2.565-0.516,3.503-1.451L46.5,36.597l3.499,3.5L33.094,57.001c-1.795,1.792-4.272,2.901-7.005,2.901l0.003,0.002
	c-5.471,0-9.902-4.436-9.902-9.906c0-5.468,4.432-9.901,9.902-9.901c2.736,0,5.21,1.108,7.004,2.899L29.594,46.5z"/>
<path fill="none" stroke="#000000" stroke-width="2" stroke-linecap="round" stroke-linejoin="round" stroke-miterlimit="10" d="
	M73.906,33.906v0.004c-3.881,0-7.542,1.375-10.458,3.879l-1.226-1.226c2.504-2.913,3.869-6.586,3.869-10.471
	C66.092,17.222,58.875,10,49.999,10c-8.873,0-16.092,7.222-16.092,16.093l0,0c0.001,3.88,1.378,7.545,3.88,10.459l-1.223,1.225
	c-2.916-2.504-6.591-3.871-10.472-3.871C17.219,33.906,10,41.128,10,49.998c0,8.877,7.219,16.096,16.092,16.096v-0.002
	c3.88,0,7.543-1.376,10.459-3.881l1.223,1.224c-2.503,2.917-3.87,6.59-3.87,10.472C33.905,82.78,41.124,90,49.999,90
	c8.875,0,16.093-7.22,16.093-16.094H66.09c0-3.88-1.377-7.541-3.88-10.457l1.226-1.227c2.916,2.506,6.588,3.871,10.471,3.871
	C82.781,66.094,90,58.875,90,50.002C90,41.128,82.781,33.906,73.906,33.906z"/>
<path fill="none" stroke="#000000" stroke-width="2" stroke-linecap="round" stroke-linejoin="round" stroke-miterlimit="10" d="
	M46.497,70.404c-0.934,0.936-1.449,2.178-1.449,3.502c0,2.729,2.221,4.951,4.951,4.951c2.729,0,4.95-2.218,4.952-4.947h-0.002
	c0-1.324-0.515-2.565-1.45-3.504L36.594,53.5l3.5-3.502l16.904,16.908C58.792,68.7,59.9,71.175,59.9,73.91l0.002-0.004
	c0,5.469-4.436,9.902-9.904,9.902c-5.471,0-9.904-4.434-9.904-9.902c0-2.736,1.109-5.211,2.901-7.002L46.497,70.404z"/>
<rect x="42.994" y="42.998" transform="matrix(0.707 0.7072 -0.7072 0.707 50.0069 -20.7095)" fill="none" stroke="#000000" stroke-width="2" stroke-linecap="round" stroke-linejoin="round" stroke-miterlimit="10" width="14.008" height="14.005"/>
</svg>
