<?xml version="1.0" encoding="utf-8"?>
<!-- Generator: Adobe Illustrator 16.0.0, SVG Export Plug-In . SVG Version: 6.00 Build 0)  -->
<!DOCTYPE svg PUBLIC "-//W3C//DTD SVG 1.0//EN" "http://www.w3.org/TR/2001/REC-SVG-20010904/DTD/svg10.dtd">
<svg version="1.0" id="Layer_1" xmlns="http://www.w3.org/2000/svg" xmlns:xlink="http://www.w3.org/1999/xlink" x="0px" y="0px"
	 width="100px" height="100px" viewBox="0 0 100 100" enable-background="new 0 0 100 100" xml:space="preserve">
<path fill="none" stroke="#000000" stroke-width="2" stroke-linecap="round" stroke-linejoin="round" stroke-miterlimit="10" d="
	M60.001,20H40.005c-1.919,4.625-2.987,9.682-2.987,15.001c0,2.688,0.279,5.309,0.795,7.845c4.286-0.311,8.39-1.271,12.185-2.846
	v0.001c2.285-0.949,4.679-1.686,7.158-2.192c-0.066-0.931-0.141-1.86-0.141-2.808C57.016,29.682,58.084,24.625,60.001,20z"/>
<path fill="none" stroke="#000000" stroke-width="2" stroke-linecap="round" stroke-linejoin="round" stroke-miterlimit="10" d="
	M40.001,79.996h19.998c1.918-4.623,2.986-9.682,2.986-14.999c0-2.688-0.277-5.309-0.797-7.845
	c-4.284,0.309-8.388,1.271-12.183,2.846v-0.004c-2.284,0.951-4.678,1.687-7.159,2.193c0.069,0.932,0.142,1.862,0.142,2.81
	C42.988,70.314,41.92,75.373,40.001,79.996z"/>
<path fill="none" stroke="#000000" stroke-width="2" stroke-linecap="round" stroke-linejoin="round" stroke-miterlimit="10" d="
	M20.004,39.998v19.996c4.627,1.919,9.683,2.987,15,2.987c2.687,0,5.308-0.275,7.844-0.796c-0.309-4.284-1.27-8.389-2.846-12.185
	h0.002c-0.947-2.284-1.685-4.679-2.191-7.157c-0.929,0.067-1.86,0.141-2.809,0.141C29.687,42.984,24.631,41.917,20.004,39.998z"/>
<path fill="none" stroke="#000000" stroke-width="2" stroke-linecap="round" stroke-linejoin="round" stroke-miterlimit="10" d="
	M80,59.998V40.001c-4.624-1.919-9.685-2.986-14.999-2.986c-2.688,0-5.309,0.277-7.845,0.796c0.307,4.285,1.27,8.389,2.845,12.185
	h-0.002c0.947,2.286,1.684,4.681,2.189,7.157c0.932-0.065,1.863-0.142,2.813-0.142C70.315,57.011,75.376,58.079,80,59.998z"/>
<path fill="none" stroke="#000000" stroke-width="2" stroke-linecap="round" stroke-linejoin="round" stroke-miterlimit="10" d="
	M20,40V20h20.004c-1.919,4.625-2.987,9.682-2.987,15.001c0,2.688,0.279,5.309,0.795,7.845c-0.931,0.065-1.863,0.139-2.81,0.139
	C29.684,42.984,24.627,41.917,20,40z"/>
<path fill="none" stroke="#000000" stroke-width="2" stroke-linecap="round" stroke-linejoin="round" stroke-miterlimit="10" d="
	M79.996,40.001V20H60.001c-1.917,4.625-2.985,9.682-2.985,15.001c0,0.947,0.074,1.877,0.141,2.808
	c2.534-0.517,5.155-0.794,7.841-0.794C70.313,37.015,75.374,38.081,79.996,40.001z"/>
<path fill="none" stroke="#000000" stroke-width="2" stroke-linecap="round" stroke-linejoin="round" stroke-miterlimit="10" d="
	M79.996,60v20H59.991c1.918-4.627,2.986-9.684,2.986-15.001c0-2.688-0.277-5.31-0.795-7.845c0.934-0.067,1.863-0.14,2.813-0.14
	C70.313,57.015,75.37,58.083,79.996,60z"/>
<path fill="none" stroke="#000000" stroke-width="2" stroke-linecap="round" stroke-linejoin="round" stroke-miterlimit="10" d="
	M20,59.998V80h19.994c1.919-4.627,2.987-9.684,2.987-15.001c0-0.949-0.072-1.88-0.142-2.81c-2.532,0.519-5.153,0.796-7.84,0.796
	C29.684,62.985,24.623,61.917,20,59.998z"/>
<path fill="none" stroke="#000000" stroke-width="2" stroke-linecap="round" stroke-linejoin="round" stroke-miterlimit="10" d="
	M42.849,62.188c2.476-0.507,4.868-1.242,7.15-2.189v0.004c3.8-1.58,7.908-2.541,12.194-2.848c-0.506-2.479-1.246-4.871-2.193-7.155
	l0.002-0.002c-1.575-3.796-2.538-7.901-2.845-12.188c-2.479,0.507-4.873,1.243-7.158,2.192V40
	c-3.795,1.574-7.899,2.535-12.185,2.846c0.507,2.475,1.244,4.867,2.191,7.151l0,0C41.579,53.794,42.54,57.901,42.849,62.188z"/>
</svg>
