<?xml version="1.0" encoding="utf-8"?>
<!-- Generator: Adobe Illustrator 16.0.0, SVG Export Plug-In . SVG Version: 6.00 Build 0)  -->
<!DOCTYPE svg PUBLIC "-//W3C//DTD SVG 1.0//EN" "http://www.w3.org/TR/2001/REC-SVG-20010904/DTD/svg10.dtd">
<svg version="1.0" id="Layer_1" xmlns="http://www.w3.org/2000/svg" xmlns:xlink="http://www.w3.org/1999/xlink" x="0px" y="0px"
	 width="100px" height="100px" viewBox="0 0 100 100" enable-background="new 0 0 100 100" xml:space="preserve">
<path fill="none" stroke="#000000" stroke-width="2" stroke-linecap="round" stroke-linejoin="round" stroke-miterlimit="10" d="
	M10,44.609c6.177-2.904,13.333-3.136,19.999,0h0.003c6.667,3.135,13.821,2.903,19.998,0c6.179-2.904,13.335-3.136,19.997,0h0.007
	c6.663,3.135,13.819,2.903,19.996,0V33.828c-6.177,2.904-13.333,3.136-19.996,0h-0.007c-6.662-3.135-13.818-2.903-19.997,0
	c-6.177,2.904-13.332,3.136-19.998,0h-0.003c-6.667-3.135-13.822-2.903-19.999,0V44.609z"/>
<path fill="none" stroke="#000000" stroke-width="2" stroke-linecap="round" stroke-linejoin="round" stroke-miterlimit="10" d="
	M10,23.049c6.177-2.905,13.333-3.135,19.999,0h0.003c6.667,3.136,13.821,2.904,19.998,0c6.179-2.905,13.335-3.135,19.997,0h0.007
	c6.663,3.136,13.819,2.904,19.996,0V12.266c-6.177,2.903-13.333,3.135-19.996,0h-0.007c-6.662-3.136-13.818-2.904-19.997,0
	c-6.177,2.903-13.332,3.135-19.998,0h-0.003c-6.667-3.136-13.822-2.904-19.999,0V23.049z"/>
<path fill="none" stroke="#000000" stroke-width="2" stroke-linecap="round" stroke-linejoin="round" stroke-miterlimit="10" d="
	M10,87.734c6.177-2.904,13.333-3.135,19.999,0h0.003c6.667,3.135,13.821,2.904,19.998,0c6.179-2.904,13.335-3.135,19.997,0h0.007
	c6.663,3.135,13.819,2.904,19.996,0V76.955c-6.177,2.904-13.333,3.135-19.996,0h-0.007c-6.662-3.135-13.818-2.904-19.997,0
	c-6.177,2.904-13.332,3.135-19.998,0h-0.003c-6.667-3.135-13.822-2.904-19.999,0V87.734z"/>
<path fill="none" stroke="#000000" stroke-width="2" stroke-linecap="round" stroke-linejoin="round" stroke-miterlimit="10" d="
	M10,66.175c6.177-2.906,13.333-3.137,19.999,0h0.003c6.667,3.136,13.821,2.905,19.998,0c6.179-2.906,13.335-3.137,19.997,0h0.007
	c6.663,3.136,13.819,2.905,19.996,0V55.39c-6.177,2.904-13.333,3.136-19.996,0h-0.007c-6.662-3.135-13.818-2.903-19.997,0
	c-6.177,2.904-13.332,3.136-19.998,0h-0.003c-6.667-3.135-13.822-2.903-19.999,0V66.175z"/>
</svg>
