<?xml version="1.0" standalone="no"?>
<!DOCTYPE svg PUBLIC "-//W3C//DTD SVG 20010904//EN"
 "http://www.w3.org/TR/2001/REC-SVG-20010904/DTD/svg10.dtd">
<svg version="1.0" xmlns="http://www.w3.org/2000/svg"
 width="512.000000pt" height="512.000000pt" viewBox="0 0 512.000000 512.000000"
 preserveAspectRatio="xMidYMid meet">
<metadata>
Created by potrace 1.14, written by Peter Selinger 2001-2017
</metadata>
<g transform="translate(0.000000,512.000000) scale(0.100000,-0.100000)"
fill="#000000" stroke="none">
<path d="M4357 3441 c-10 -12 -13 -57 -12 -176 1 -88 0 -165 -2 -170 -2 -6
-37 -10 -86 -9 -120 1 -117 5 -117 -131 0 -135 -3 -132 113 -130 45 0 81 -4
85 -10 4 -5 7 -206 7 -445 1 -392 3 -441 19 -492 49 -152 171 -211 434 -211
92 0 147 4 154 11 15 15 13 241 -1 255 -6 6 -47 11 -92 13 -105 3 -149 22
-180 77 -24 42 -24 42 -25 412 -1 204 1 375 3 380 2 6 61 10 154 10 119 -1
152 2 162 13 18 22 17 219 -1 235 -10 8 -64 12 -161 13 -80 1 -149 2 -153 3
-3 0 -5 78 -5 172 2 135 -1 173 -12 182 -9 7 -61 12 -143 12 -105 1 -131 -2
-141 -14z"/>
<path d="M3344 3089 c-268 -58 -437 -257 -469 -554 -6 -49 -6 -133 -3 -275 0
-36 31 -184 44 -218 56 -141 149 -251 265 -315 172 -96 432 -102 620 -15 64
30 149 92 181 133 12 17 29 37 37 45 25 26 71 134 77 182 6 43 5 48 -17 57
-23 10 -100 23 -204 37 -27 3 -52 8 -54 10 -10 9 -41 -19 -41 -37 0 -34 -48
-116 -87 -148 -47 -39 -115 -62 -190 -63 -123 -3 -207 46 -260 152 -38 76 -45
122 -48 288 -3 258 46 378 178 437 43 19 68 23 133 21 145 -4 243 -75 275
-200 11 -44 39 -74 58 -62 5 3 35 8 67 11 33 3 66 8 74 10 8 2 35 7 59 10 56
7 73 21 67 54 -11 61 -17 80 -32 117 -56 133 -198 256 -356 308 -106 35 -255
41 -374 15z"/>
<path d="M906 3075 c-3 -8 10 -68 30 -132 19 -65 42 -143 50 -173 9 -30 22
-73 29 -95 7 -22 16 -53 21 -70 11 -44 10 -42 44 -154 17 -57 33 -111 35 -120
2 -9 13 -45 24 -81 10 -36 31 -104 45 -152 14 -49 38 -127 52 -175 14 -49 35
-119 46 -158 11 -38 25 -75 30 -82 6 -8 56 -11 159 -11 143 0 150 1 163 21 7
12 48 155 91 317 42 162 81 306 86 320 5 14 11 39 14 57 3 18 10 44 15 58 5
14 12 36 14 50 3 13 9 32 15 42 8 15 11 16 15 3 7 -20 116 -398 126 -435 33
-130 124 -421 132 -426 20 -12 307 -8 316 5 5 6 14 31 21 56 7 25 17 56 22 70
11 35 140 472 144 490 2 8 33 112 68 230 169 561 162 535 145 546 -7 5 -77 9
-155 10 -148 3 -163 -1 -170 -44 -1 -10 -19 -75 -38 -147 -20 -71 -38 -138
-40 -147 -2 -10 -18 -71 -35 -135 -18 -65 -33 -125 -35 -133 -2 -8 -23 -82
-45 -165 -23 -82 -42 -157 -44 -165 -2 -8 -6 -15 -11 -15 -6 0 -126 426 -149
530 -24 106 -112 412 -120 417 -20 13 -261 9 -278 -4 -13 -10 -47 -123 -82
-269 -3 -9 -28 -106 -56 -215 -28 -110 -53 -206 -55 -214 -3 -8 -14 -51 -25
-95 -12 -44 -23 -88 -25 -98 -9 -41 -17 -59 -25 -51 -6 7 -69 248 -106 407 -2
9 -6 25 -8 35 -2 9 -14 55 -26 102 -12 47 -23 92 -25 100 -2 8 -15 62 -30 120
-15 58 -28 112 -30 120 -2 8 -8 27 -14 43 l-11 27 -154 0 c-127 0 -155 -3
-160 -15z"/>
<path d="M135 2718 c7 -22 72 -229 80 -255 3 -7 19 -14 37 -14 44 -2 141 -8
368 -24 57 -4 237 -16 303 -19 20 -1 37 1 37 4 0 4 -14 49 -30 101 -45 140
-99 186 -227 194 -38 2 -111 7 -163 11 -133 9 -169 11 -298 19 l-114 6 7 -23z"/>
<path d="M250 2327 c0 -14 51 -171 64 -195 17 -34 66 -75 107 -90 14 -6 71
-13 125 -16 54 -4 131 -9 169 -11 79 -5 221 -15 308 -20 31 -2 57 -2 57 0 0 9
-82 262 -88 274 -5 8 -27 16 -53 17 -123 7 -250 15 -299 19 -30 3 -93 7 -140
10 -47 2 -122 7 -167 10 -46 3 -83 4 -83 2z"/>
</g>
</svg>
